<svg viewBox="0 0 830 1206" xmlns="http://www.w3.org/2000/svg" font-family="system-ui, -apple-system, sans-serif">
<rect x="0" y="0" width="830" height="1206" opacity="1" fill="#0D1117" stroke="none"/>
<text x="415" y="18" dy="0.5ex" text-anchor="middle" font-family="sans-serif" font-size="12.096774193548388" opacity="1" fill="#E6EDF3" font-weight="bold">
Decode Throughput vs Input Size (Silesia slices, C lz4 blocks)
</text>
<text x="415" y="36" dy="0.5ex" text-anchor="middle" font-family="sans-serif" font-size="8.870967741935484" opacity="1" fill="#7D8590">
Intel Core i7-8700B @ 3.20GHz, 6 cores, performance governor, turbo off
</text>
<text x="440" y="54" dy="0.5ex" text-anchor="middle" font-family="sans-serif" font-size="10.483870967741936" opacity="1" fill="#E6EDF3" font-weight="bold">
dickens
</text>
<polyline fill="none" opacity="1" stroke="#30363D" stroke-width="2" points="90,286 790,286 "/>
<polyline fill="none" opacity="1" stroke="#21262D" stroke-width="1" points="116,66 116,286 "/>
<text x="116" y="302" dy="0.5ex" text-anchor="middle" font-family="sans-serif" font-size="8.064516129032258" opacity="1" fill="#7D8590">
512
</text>
<polyline fill="none" opacity="1" stroke="#21262D" stroke-width="1" points="197,66 197,286 "/>
<text x="197" y="302" dy="0.5ex" text-anchor="middle" font-family="sans-serif" font-size="8.064516129032258" opacity="1" fill="#7D8590">
1K
</text>
<polyline fill="none" opacity="1" stroke="#21262D" stroke-width="1" points="278,66 278,286 "/>
<text x="278" y="302" dy="0.5ex" text-anchor="middle" font-family="sans-serif" font-size="8.064516129032258" opacity="1" fill="#7D8590">
2K
</text>
<polyline fill="none" opacity="1" stroke="#21262D" stroke-width="1" points="359,66 359,286 "/>
<text x="359" y="302" dy="0.5ex" text-anchor="middle" font-family="sans-serif" font-size="8.064516129032258" opacity="1" fill="#7D8590">
4K
</text>
<polyline fill="none" opacity="1" stroke="#21262D" stroke-width="1" points="440,66 440,286 "/>
<text x="440" y="302" dy="0.5ex" text-anchor="middle" font-family="sans-serif" font-size="8.064516129032258" opacity="1" fill="#7D8590">
8K
</text>
<polyline fill="none" opacity="1" stroke="#21262D" stroke-width="1" points="521,66 521,286 "/>
<text x="521" y="302" dy="0.5ex" text-anchor="middle" font-family="sans-serif" font-size="8.064516129032258" opacity="1" fill="#7D8590">
16K
</text>
<polyline fill="none" opacity="1" stroke="#21262D" stroke-width="1" points="602,66 602,286 "/>
<text x="602" y="302" dy="0.5ex" text-anchor="middle" font-family="sans-serif" font-size="8.064516129032258" opacity="1" fill="#7D8590">
32K
</text>
<polyline fill="none" opacity="1" stroke="#21262D" stroke-width="1" points="683,66 683,286 "/>
<text x="683" y="302" dy="0.5ex" text-anchor="middle" font-family="sans-serif" font-size="8.064516129032258" opacity="1" fill="#7D8590">
64K
</text>
<polyline fill="none" opacity="1" stroke="#21262D" stroke-width="1" points="764,66 764,286 "/>
<text x="764" y="302" dy="0.5ex" text-anchor="middle" font-family="sans-serif" font-size="8.064516129032258" opacity="1" fill="#7D8590">
128K
</text>
<polyline fill="none" opacity="1" stroke="#21262D" stroke-width="1" points="90,269 790,269 "/>
<text x="82" y="269" dy="0.5ex" text-anchor="end" font-family="sans-serif" font-size="8.064516129032258" opacity="1" fill="#7D8590">
1000
</text>
<polyline fill="none" opacity="1" stroke="#21262D" stroke-width="1" points="90,162 790,162 "/>
<text x="82" y="162" dy="0.5ex" text-anchor="end" font-family="sans-serif" font-size="8.064516129032258" opacity="1" fill="#7D8590">
2000
</text>
<polyline fill="none" opacity="1" stroke="#60A5FA" stroke-width="2" points="116,88 197,97 278,117 359,134 440,150 521,166 602,181 683,193 764,139 "/>
<circle cx="116" cy="88" r="3" opacity="1" fill="#60A5FA" stroke="none" stroke-width="1"/>
<circle cx="197" cy="97" r="3" opacity="1" fill="#60A5FA" stroke="none" stroke-width="1"/>
<circle cx="278" cy="117" r="3" opacity="1" fill="#60A5FA" stroke="none" stroke-width="1"/>
<circle cx="359" cy="134" r="3" opacity="1" fill="#60A5FA" stroke="none" stroke-width="1"/>
<circle cx="440" cy="150" r="3" opacity="1" fill="#60A5FA" stroke="none" stroke-width="1"/>
<circle cx="521" cy="166" r="3" opacity="1" fill="#60A5FA" stroke="none" stroke-width="1"/>
<circle cx="602" cy="181" r="3" opacity="1" fill="#60A5FA" stroke="none" stroke-width="1"/>
<circle cx="683" cy="193" r="3" opacity="1" fill="#60A5FA" stroke="none" stroke-width="1"/>
<circle cx="764" cy="139" r="3" opacity="1" fill="#60A5FA" stroke="none" stroke-width="1"/>
<polyline fill="none" opacity="1" stroke="#F87171" stroke-width="2" points="116,113 197,119 278,141 359,158 440,169 521,184 602,197 683,207 764,154 "/>
<circle cx="116" cy="113" r="3" opacity="1" fill="#F87171" stroke="none" stroke-width="1"/>
<circle cx="197" cy="119" r="3" opacity="1" fill="#F87171" stroke="none" stroke-width="1"/>
<circle cx="278" cy="141" r="3" opacity="1" fill="#F87171" stroke="none" stroke-width="1"/>
<circle cx="359" cy="158" r="3" opacity="1" fill="#F87171" stroke="none" stroke-width="1"/>
<circle cx="440" cy="169" r="3" opacity="1" fill="#F87171" stroke="none" stroke-width="1"/>
<circle cx="521" cy="184" r="3" opacity="1" fill="#F87171" stroke="none" stroke-width="1"/>
<circle cx="602" cy="197" r="3" opacity="1" fill="#F87171" stroke="none" stroke-width="1"/>
<circle cx="683" cy="207" r="3" opacity="1" fill="#F87171" stroke="none" stroke-width="1"/>
<circle cx="764" cy="154" r="3" opacity="1" fill="#F87171" stroke="none" stroke-width="1"/>
<polyline fill="none" opacity="1" stroke="#F472B6" stroke-width="2" points="116,158 197,168 278,193 359,210 440,222 521,240 602,254 683,264 764,210 "/>
<circle cx="116" cy="158" r="3" opacity="1" fill="#F472B6" stroke="none" stroke-width="1"/>
<circle cx="197" cy="168" r="3" opacity="1" fill="#F472B6" stroke="none" stroke-width="1"/>
<circle cx="278" cy="193" r="3" opacity="1" fill="#F472B6" stroke="none" stroke-width="1"/>
<circle cx="359" cy="210" r="3" opacity="1" fill="#F472B6" stroke="none" stroke-width="1"/>
<circle cx="440" cy="222" r="3" opacity="1" fill="#F472B6" stroke="none" stroke-width="1"/>
<circle cx="521" cy="240" r="3" opacity="1" fill="#F472B6" stroke="none" stroke-width="1"/>
<circle cx="602" cy="254" r="3" opacity="1" fill="#F472B6" stroke="none" stroke-width="1"/>
<circle cx="683" cy="264" r="3" opacity="1" fill="#F472B6" stroke="none" stroke-width="1"/>
<circle cx="764" cy="210" r="3" opacity="1" fill="#F472B6" stroke="none" stroke-width="1"/>
<polyline fill="none" opacity="1" stroke="#F59E0B" stroke-width="2" points="116,99 197,108 278,126 359,141 440,157 521,169 602,183 683,193 764,143 "/>
<circle cx="116" cy="99" r="3" opacity="1" fill="#F59E0B" stroke="none" stroke-width="1"/>
<circle cx="197" cy="108" r="3" opacity="1" fill="#F59E0B" stroke="none" stroke-width="1"/>
<circle cx="278" cy="126" r="3" opacity="1" fill="#F59E0B" stroke="none" stroke-width="1"/>
<circle cx="359" cy="141" r="3" opacity="1" fill="#F59E0B" stroke="none" stroke-width="1"/>
<circle cx="440" cy="157" r="3" opacity="1" fill="#F59E0B" stroke="none" stroke-width="1"/>
<circle cx="521" cy="169" r="3" opacity="1" fill="#F59E0B" stroke="none" stroke-width="1"/>
<circle cx="602" cy="183" r="3" opacity="1" fill="#F59E0B" stroke="none" stroke-width="1"/>
<circle cx="683" cy="193" r="3" opacity="1" fill="#F59E0B" stroke="none" stroke-width="1"/>
<circle cx="764" cy="143" r="3" opacity="1" fill="#F59E0B" stroke="none" stroke-width="1"/>
<polyline fill="none" opacity="1" stroke="#4ADE80" stroke-width="2" points="116,140 197,148 278,167 359,177 440,188 521,204 602,218 683,228 764,176 "/>
<circle cx="116" cy="140" r="3" opacity="1" fill="#4ADE80" stroke="none" stroke-width="1"/>
<circle cx="197" cy="148" r="3" opacity="1" fill="#4ADE80" stroke="none" stroke-width="1"/>
<circle cx="278" cy="167" r="3" opacity="1" fill="#4ADE80" stroke="none" stroke-width="1"/>
<circle cx="359" cy="177" r="3" opacity="1" fill="#4ADE80" stroke="none" stroke-width="1"/>
<circle cx="440" cy="188" r="3" opacity="1" fill="#4ADE80" stroke="none" stroke-width="1"/>
<circle cx="521" cy="204" r="3" opacity="1" fill="#4ADE80" stroke="none" stroke-width="1"/>
<circle cx="602" cy="218" r="3" opacity="1" fill="#4ADE80" stroke="none" stroke-width="1"/>
<circle cx="683" cy="228" r="3" opacity="1" fill="#4ADE80" stroke="none" stroke-width="1"/>
<circle cx="764" cy="176" r="3" opacity="1" fill="#4ADE80" stroke="none" stroke-width="1"/>
<text x="440" y="324" dy="0.5ex" text-anchor="middle" font-family="sans-serif" font-size="10.483870967741936" opacity="1" fill="#E6EDF3" font-weight="bold">
nci
</text>
<polyline fill="none" opacity="1" stroke="#30363D" stroke-width="2" points="90,556 790,556 "/>
<polyline fill="none" opacity="1" stroke="#21262D" stroke-width="1" points="116,336 116,556 "/>
<text x="116" y="572" dy="0.5ex" text-anchor="middle" font-family="sans-serif" font-size="8.064516129032258" opacity="1" fill="#7D8590">
512
</text>
<polyline fill="none" opacity="1" stroke="#21262D" stroke-width="1" points="197,336 197,556 "/>
<text x="197" y="572" dy="0.5ex" text-anchor="middle" font-family="sans-serif" font-size="8.064516129032258" opacity="1" fill="#7D8590">
1K
</text>
<polyline fill="none" opacity="1" stroke="#21262D" stroke-width="1" points="278,336 278,556 "/>
<text x="278" y="572" dy="0.5ex" text-anchor="middle" font-family="sans-serif" font-size="8.064516129032258" opacity="1" fill="#7D8590">
2K
</text>
<polyline fill="none" opacity="1" stroke="#21262D" stroke-width="1" points="359,336 359,556 "/>
<text x="359" y="572" dy="0.5ex" text-anchor="middle" font-family="sans-serif" font-size="8.064516129032258" opacity="1" fill="#7D8590">
4K
</text>
<polyline fill="none" opacity="1" stroke="#21262D" stroke-width="1" points="440,336 440,556 "/>
<text x="440" y="572" dy="0.5ex" text-anchor="middle" font-family="sans-serif" font-size="8.064516129032258" opacity="1" fill="#7D8590">
8K
</text>
<polyline fill="none" opacity="1" stroke="#21262D" stroke-width="1" points="521,336 521,556 "/>
<text x="521" y="572" dy="0.5ex" text-anchor="middle" font-family="sans-serif" font-size="8.064516129032258" opacity="1" fill="#7D8590">
16K
</text>
<polyline fill="none" opacity="1" stroke="#21262D" stroke-width="1" points="602,336 602,556 "/>
<text x="602" y="572" dy="0.5ex" text-anchor="middle" font-family="sans-serif" font-size="8.064516129032258" opacity="1" fill="#7D8590">
32K
</text>
<polyline fill="none" opacity="1" stroke="#21262D" stroke-width="1" points="683,336 683,556 "/>
<text x="683" y="572" dy="0.5ex" text-anchor="middle" font-family="sans-serif" font-size="8.064516129032258" opacity="1" fill="#7D8590">
64K
</text>
<polyline fill="none" opacity="1" stroke="#21262D" stroke-width="1" points="764,336 764,556 "/>
<text x="764" y="572" dy="0.5ex" text-anchor="middle" font-family="sans-serif" font-size="8.064516129032258" opacity="1" fill="#7D8590">
128K
</text>
<polyline fill="none" opacity="1" stroke="#21262D" stroke-width="1" points="90,550 790,550 "/>
<text x="82" y="550" dy="0.5ex" text-anchor="end" font-family="sans-serif" font-size="8.064516129032258" opacity="1" fill="#7D8590">
2000
</text>
<polyline fill="none" opacity="1" stroke="#21262D" stroke-width="1" points="90,380 790,380 "/>
<text x="82" y="380" dy="0.5ex" text-anchor="end" font-family="sans-serif" font-size="8.064516129032258" opacity="1" fill="#7D8590">
5000
</text>
<polyline fill="none" opacity="1" stroke="#60A5FA" stroke-width="2" points="116,449 197,396 278,379 359,384 440,375 521,377 602,380 683,362 764,376 "/>
<circle cx="116" cy="449" r="3" opacity="1" fill="#60A5FA" stroke="none" stroke-width="1"/>
<circle cx="197" cy="396" r="3" opacity="1" fill="#60A5FA" stroke="none" stroke-width="1"/>
<circle cx="278" cy="379" r="3" opacity="1" fill="#60A5FA" stroke="none" stroke-width="1"/>
<circle cx="359" cy="384" r="3" opacity="1" fill="#60A5FA" stroke="none" stroke-width="1"/>
<circle cx="440" cy="375" r="3" opacity="1" fill="#60A5FA" stroke="none" stroke-width="1"/>
<circle cx="521" cy="377" r="3" opacity="1" fill="#60A5FA" stroke="none" stroke-width="1"/>
<circle cx="602" cy="380" r="3" opacity="1" fill="#60A5FA" stroke="none" stroke-width="1"/>
<circle cx="683" cy="362" r="3" opacity="1" fill="#60A5FA" stroke="none" stroke-width="1"/>
<circle cx="764" cy="376" r="3" opacity="1" fill="#60A5FA" stroke="none" stroke-width="1"/>
<polyline fill="none" opacity="1" stroke="#F87171" stroke-width="2" points="116,478 197,421 278,396 359,409 440,396 521,395 602,404 683,401 764,418 "/>
<circle cx="116" cy="478" r="3" opacity="1" fill="#F87171" stroke="none" stroke-width="1"/>
<circle cx="197" cy="421" r="3" opacity="1" fill="#F87171" stroke="none" stroke-width="1"/>
<circle cx="278" cy="396" r="3" opacity="1" fill="#F87171" stroke="none" stroke-width="1"/>
<circle cx="359" cy="409" r="3" opacity="1" fill="#F87171" stroke="none" stroke-width="1"/>
<circle cx="440" cy="396" r="3" opacity="1" fill="#F87171" stroke="none" stroke-width="1"/>
<circle cx="521" cy="395" r="3" opacity="1" fill="#F87171" stroke="none" stroke-width="1"/>
<circle cx="602" cy="404" r="3" opacity="1" fill="#F87171" stroke="none" stroke-width="1"/>
<circle cx="683" cy="401" r="3" opacity="1" fill="#F87171" stroke="none" stroke-width="1"/>
<circle cx="764" cy="418" r="3" opacity="1" fill="#F87171" stroke="none" stroke-width="1"/>
<polyline fill="none" opacity="1" stroke="#F472B6" stroke-width="2" points="116,530 197,477 278,460 359,467 440,459 521,466 602,477 683,472 764,481 "/>
<circle cx="116" cy="530" r="3" opacity="1" fill="#F472B6" stroke="none" stroke-width="1"/>
<circle cx="197" cy="477" r="3" opacity="1" fill="#F472B6" stroke="none" stroke-width="1"/>
<circle cx="278" cy="460" r="3" opacity="1" fill="#F472B6" stroke="none" stroke-width="1"/>
<circle cx="359" cy="467" r="3" opacity="1" fill="#F472B6" stroke="none" stroke-width="1"/>
<circle cx="440" cy="459" r="3" opacity="1" fill="#F472B6" stroke="none" stroke-width="1"/>
<circle cx="521" cy="466" r="3" opacity="1" fill="#F472B6" stroke="none" stroke-width="1"/>
<circle cx="602" cy="477" r="3" opacity="1" fill="#F472B6" stroke="none" stroke-width="1"/>
<circle cx="683" cy="472" r="3" opacity="1" fill="#F472B6" stroke="none" stroke-width="1"/>
<circle cx="764" cy="481" r="3" opacity="1" fill="#F472B6" stroke="none" stroke-width="1"/>
<polyline fill="none" opacity="1" stroke="#F59E0B" stroke-width="2" points="116,476 197,426 278,402 359,406 440,412 521,408 602,410 683,409 764,455 "/>
<circle cx="116" cy="476" r="3" opacity="1" fill="#F59E0B" stroke="none" stroke-width="1"/>
<circle cx="197" cy="426" r="3" opacity="1" fill="#F59E0B" stroke="none" stroke-width="1"/>
<circle cx="278" cy="402" r="3" opacity="1" fill="#F59E0B" stroke="none" stroke-width="1"/>
<circle cx="359" cy="406" r="3" opacity="1" fill="#F59E0B" stroke="none" stroke-width="1"/>
<circle cx="440" cy="412" r="3" opacity="1" fill="#F59E0B" stroke="none" stroke-width="1"/>
<circle cx="521" cy="408" r="3" opacity="1" fill="#F59E0B" stroke="none" stroke-width="1"/>
<circle cx="602" cy="410" r="3" opacity="1" fill="#F59E0B" stroke="none" stroke-width="1"/>
<circle cx="683" cy="409" r="3" opacity="1" fill="#F59E0B" stroke="none" stroke-width="1"/>
<circle cx="764" cy="455" r="3" opacity="1" fill="#F59E0B" stroke="none" stroke-width="1"/>
<polyline fill="none" opacity="1" stroke="#4ADE80" stroke-width="2" points="116,527 197,468 278,447 359,443 440,440 521,439 602,441 683,419 764,459 "/>
<circle cx="116" cy="527" r="3" opacity="1" fill="#4ADE80" stroke="none" stroke-width="1"/>
<circle cx="197" cy="468" r="3" opacity="1" fill="#4ADE80" stroke="none" stroke-width="1"/>
<circle cx="278" cy="447" r="3" opacity="1" fill="#4ADE80" stroke="none" stroke-width="1"/>
<circle cx="359" cy="443" r="3" opacity="1" fill="#4ADE80" stroke="none" stroke-width="1"/>
<circle cx="440" cy="440" r="3" opacity="1" fill="#4ADE80" stroke="none" stroke-width="1"/>
<circle cx="521" cy="439" r="3" opacity="1" fill="#4ADE80" stroke="none" stroke-width="1"/>
<circle cx="602" cy="441" r="3" opacity="1" fill="#4ADE80" stroke="none" stroke-width="1"/>
<circle cx="683" cy="419" r="3" opacity="1" fill="#4ADE80" stroke="none" stroke-width="1"/>
<circle cx="764" cy="459" r="3" opacity="1" fill="#4ADE80" stroke="none" stroke-width="1"/>
<text x="440" y="594" dy="0.5ex" text-anchor="middle" font-family="sans-serif" font-size="10.483870967741936" opacity="1" fill="#E6EDF3" font-weight="bold">
xml
</text>
<polyline fill="none" opacity="1" stroke="#30363D" stroke-width="2" points="90,826 790,826 "/>
<polyline fill="none" opacity="1" stroke="#21262D" stroke-width="1" points="116,606 116,826 "/>
<text x="116" y="842" dy="0.5ex" text-anchor="middle" font-family="sans-serif" font-size="8.064516129032258" opacity="1" fill="#7D8590">
512
</text>
<polyline fill="none" opacity="1" stroke="#21262D" stroke-width="1" points="197,606 197,826 "/>
<text x="197" y="842" dy="0.5ex" text-anchor="middle" font-family="sans-serif" font-size="8.064516129032258" opacity="1" fill="#7D8590">
1K
</text>
<polyline fill="none" opacity="1" stroke="#21262D" stroke-width="1" points="278,606 278,826 "/>
<text x="278" y="842" dy="0.5ex" text-anchor="middle" font-family="sans-serif" font-size="8.064516129032258" opacity="1" fill="#7D8590">
2K
</text>
<polyline fill="none" opacity="1" stroke="#21262D" stroke-width="1" points="359,606 359,826 "/>
<text x="359" y="842" dy="0.5ex" text-anchor="middle" font-family="sans-serif" font-size="8.064516129032258" opacity="1" fill="#7D8590">
4K
</text>
<polyline fill="none" opacity="1" stroke="#21262D" stroke-width="1" points="440,606 440,826 "/>
<text x="440" y="842" dy="0.5ex" text-anchor="middle" font-family="sans-serif" font-size="8.064516129032258" opacity="1" fill="#7D8590">
8K
</text>
<polyline fill="none" opacity="1" stroke="#21262D" stroke-width="1" points="521,606 521,826 "/>
<text x="521" y="842" dy="0.5ex" text-anchor="middle" font-family="sans-serif" font-size="8.064516129032258" opacity="1" fill="#7D8590">
16K
</text>
<polyline fill="none" opacity="1" stroke="#21262D" stroke-width="1" points="602,606 602,826 "/>
<text x="602" y="842" dy="0.5ex" text-anchor="middle" font-family="sans-serif" font-size="8.064516129032258" opacity="1" fill="#7D8590">
32K
</text>
<polyline fill="none" opacity="1" stroke="#21262D" stroke-width="1" points="683,606 683,826 "/>
<text x="683" y="842" dy="0.5ex" text-anchor="middle" font-family="sans-serif" font-size="8.064516129032258" opacity="1" fill="#7D8590">
64K
</text>
<polyline fill="none" opacity="1" stroke="#21262D" stroke-width="1" points="764,606 764,826 "/>
<text x="764" y="842" dy="0.5ex" text-anchor="middle" font-family="sans-serif" font-size="8.064516129032258" opacity="1" fill="#7D8590">
128K
</text>
<polyline fill="none" opacity="1" stroke="#21262D" stroke-width="1" points="90,775 790,775 "/>
<text x="82" y="775" dy="0.5ex" text-anchor="end" font-family="sans-serif" font-size="8.064516129032258" opacity="1" fill="#7D8590">
2000
</text>
<polyline fill="none" opacity="1" stroke="#21262D" stroke-width="1" points="90,631 790,631 "/>
<text x="82" y="631" dy="0.5ex" text-anchor="end" font-family="sans-serif" font-size="8.064516129032258" opacity="1" fill="#7D8590">
5000
</text>
<polyline fill="none" opacity="1" stroke="#60A5FA" stroke-width="2" points="116,641 197,641 278,664 359,645 440,642 521,634 602,628 683,629 764,637 "/>
<circle cx="116" cy="641" r="3" opacity="1" fill="#60A5FA" stroke="none" stroke-width="1"/>
<circle cx="197" cy="641" r="3" opacity="1" fill="#60A5FA" stroke="none" stroke-width="1"/>
<circle cx="278" cy="664" r="3" opacity="1" fill="#60A5FA" stroke="none" stroke-width="1"/>
<circle cx="359" cy="645" r="3" opacity="1" fill="#60A5FA" stroke="none" stroke-width="1"/>
<circle cx="440" cy="642" r="3" opacity="1" fill="#60A5FA" stroke="none" stroke-width="1"/>
<circle cx="521" cy="634" r="3" opacity="1" fill="#60A5FA" stroke="none" stroke-width="1"/>
<circle cx="602" cy="628" r="3" opacity="1" fill="#60A5FA" stroke="none" stroke-width="1"/>
<circle cx="683" cy="629" r="3" opacity="1" fill="#60A5FA" stroke="none" stroke-width="1"/>
<circle cx="764" cy="637" r="3" opacity="1" fill="#60A5FA" stroke="none" stroke-width="1"/>
<polyline fill="none" opacity="1" stroke="#F87171" stroke-width="2" points="116,661 197,689 278,690 359,665 440,660 521,650 602,645 683,667 764,671 "/>
<circle cx="116" cy="661" r="3" opacity="1" fill="#F87171" stroke="none" stroke-width="1"/>
<circle cx="197" cy="689" r="3" opacity="1" fill="#F87171" stroke="none" stroke-width="1"/>
<circle cx="278" cy="690" r="3" opacity="1" fill="#F87171" stroke="none" stroke-width="1"/>
<circle cx="359" cy="665" r="3" opacity="1" fill="#F87171" stroke="none" stroke-width="1"/>
<circle cx="440" cy="660" r="3" opacity="1" fill="#F87171" stroke="none" stroke-width="1"/>
<circle cx="521" cy="650" r="3" opacity="1" fill="#F87171" stroke="none" stroke-width="1"/>
<circle cx="602" cy="645" r="3" opacity="1" fill="#F87171" stroke="none" stroke-width="1"/>
<circle cx="683" cy="667" r="3" opacity="1" fill="#F87171" stroke="none" stroke-width="1"/>
<circle cx="764" cy="671" r="3" opacity="1" fill="#F87171" stroke="none" stroke-width="1"/>
<polyline fill="none" opacity="1" stroke="#F472B6" stroke-width="2" points="116,686 197,729 278,740 359,721 440,714 521,709 602,718 683,742 764,734 "/>
<circle cx="116" cy="686" r="3" opacity="1" fill="#F472B6" stroke="none" stroke-width="1"/>
<circle cx="197" cy="729" r="3" opacity="1" fill="#F472B6" stroke="none" stroke-width="1"/>
<circle cx="278" cy="740" r="3" opacity="1" fill="#F472B6" stroke="none" stroke-width="1"/>
<circle cx="359" cy="721" r="3" opacity="1" fill="#F472B6" stroke="none" stroke-width="1"/>
<circle cx="440" cy="714" r="3" opacity="1" fill="#F472B6" stroke="none" stroke-width="1"/>
<circle cx="521" cy="709" r="3" opacity="1" fill="#F472B6" stroke="none" stroke-width="1"/>
<circle cx="602" cy="718" r="3" opacity="1" fill="#F472B6" stroke="none" stroke-width="1"/>
<circle cx="683" cy="742" r="3" opacity="1" fill="#F472B6" stroke="none" stroke-width="1"/>
<circle cx="764" cy="734" r="3" opacity="1" fill="#F472B6" stroke="none" stroke-width="1"/>
<polyline fill="none" opacity="1" stroke="#F59E0B" stroke-width="2" points="116,804 197,764 278,733 359,697 440,678 521,662 602,653 683,670 764,706 "/>
<circle cx="116" cy="804" r="3" opacity="1" fill="#F59E0B" stroke="none" stroke-width="1"/>
<circle cx="197" cy="764" r="3" opacity="1" fill="#F59E0B" stroke="none" stroke-width="1"/>
<circle cx="278" cy="733" r="3" opacity="1" fill="#F59E0B" stroke="none" stroke-width="1"/>
<circle cx="359" cy="697" r="3" opacity="1" fill="#F59E0B" stroke="none" stroke-width="1"/>
<circle cx="440" cy="678" r="3" opacity="1" fill="#F59E0B" stroke="none" stroke-width="1"/>
<circle cx="521" cy="662" r="3" opacity="1" fill="#F59E0B" stroke="none" stroke-width="1"/>
<circle cx="602" cy="653" r="3" opacity="1" fill="#F59E0B" stroke="none" stroke-width="1"/>
<circle cx="683" cy="670" r="3" opacity="1" fill="#F59E0B" stroke="none" stroke-width="1"/>
<circle cx="764" cy="706" r="3" opacity="1" fill="#F59E0B" stroke="none" stroke-width="1"/>
<polyline fill="none" opacity="1" stroke="#4ADE80" stroke-width="2" points="116,772 197,764 278,746 359,718 440,703 521,691 602,682 683,687 764,717 "/>
<circle cx="116" cy="772" r="3" opacity="1" fill="#4ADE80" stroke="none" stroke-width="1"/>
<circle cx="197" cy="764" r="3" opacity="1" fill="#4ADE80" stroke="none" stroke-width="1"/>
<circle cx="278" cy="746" r="3" opacity="1" fill="#4ADE80" stroke="none" stroke-width="1"/>
<circle cx="359" cy="718" r="3" opacity="1" fill="#4ADE80" stroke="none" stroke-width="1"/>
<circle cx="440" cy="703" r="3" opacity="1" fill="#4ADE80" stroke="none" stroke-width="1"/>
<circle cx="521" cy="691" r="3" opacity="1" fill="#4ADE80" stroke="none" stroke-width="1"/>
<circle cx="602" cy="682" r="3" opacity="1" fill="#4ADE80" stroke="none" stroke-width="1"/>
<circle cx="683" cy="687" r="3" opacity="1" fill="#4ADE80" stroke="none" stroke-width="1"/>
<circle cx="764" cy="717" r="3" opacity="1" fill="#4ADE80" stroke="none" stroke-width="1"/>
<text x="440" y="864" dy="0.5ex" text-anchor="middle" font-family="sans-serif" font-size="10.483870967741936" opacity="1" fill="#E6EDF3" font-weight="bold">
x-ray
</text>
<polyline fill="none" opacity="1" stroke="#30363D" stroke-width="2" points="90,1096 790,1096 "/>
<polyline fill="none" opacity="1" stroke="#21262D" stroke-width="1" points="116,876 116,1096 "/>
<text x="116" y="1112" dy="0.5ex" text-anchor="middle" font-family="sans-serif" font-size="8.064516129032258" opacity="1" fill="#7D8590">
512
</text>
<polyline fill="none" opacity="1" stroke="#21262D" stroke-width="1" points="197,876 197,1096 "/>
<text x="197" y="1112" dy="0.5ex" text-anchor="middle" font-family="sans-serif" font-size="8.064516129032258" opacity="1" fill="#7D8590">
1K
</text>
<polyline fill="none" opacity="1" stroke="#21262D" stroke-width="1" points="278,876 278,1096 "/>
<text x="278" y="1112" dy="0.5ex" text-anchor="middle" font-family="sans-serif" font-size="8.064516129032258" opacity="1" fill="#7D8590">
2K
</text>
<polyline fill="none" opacity="1" stroke="#21262D" stroke-width="1" points="359,876 359,1096 "/>
<text x="359" y="1112" dy="0.5ex" text-anchor="middle" font-family="sans-serif" font-size="8.064516129032258" opacity="1" fill="#7D8590">
4K
</text>
<polyline fill="none" opacity="1" stroke="#21262D" stroke-width="1" points="440,876 440,1096 "/>
<text x="440" y="1112" dy="0.5ex" text-anchor="middle" font-family="sans-serif" font-size="8.064516129032258" opacity="1" fill="#7D8590">
8K
</text>
<polyline fill="none" opacity="1" stroke="#21262D" stroke-width="1" points="521,876 521,1096 "/>
<text x="521" y="1112" dy="0.5ex" text-anchor="middle" font-family="sans-serif" font-size="8.064516129032258" opacity="1" fill="#7D8590">
16K
</text>
<polyline fill="none" opacity="1" stroke="#21262D" stroke-width="1" points="602,876 602,1096 "/>
<text x="602" y="1112" dy="0.5ex" text-anchor="middle" font-family="sans-serif" font-size="8.064516129032258" opacity="1" fill="#7D8590">
32K
</text>
<polyline fill="none" opacity="1" stroke="#21262D" stroke-width="1" points="683,876 683,1096 "/>
<text x="683" y="1112" dy="0.5ex" text-anchor="middle" font-family="sans-serif" font-size="8.064516129032258" opacity="1" fill="#7D8590">
64K
</text>
<polyline fill="none" opacity="1" stroke="#21262D" stroke-width="1" points="764,876 764,1096 "/>
<text x="764" y="1112" dy="0.5ex" text-anchor="middle" font-family="sans-serif" font-size="8.064516129032258" opacity="1" fill="#7D8590">
128K
</text>
<polyline fill="none" opacity="1" stroke="#21262D" stroke-width="1" points="90,1047 790,1047 "/>
<text x="82" y="1047" dy="0.5ex" text-anchor="end" font-family="sans-serif" font-size="8.064516129032258" opacity="1" fill="#7D8590">
5000
</text>
<polyline fill="none" opacity="1" stroke="#21262D" stroke-width="1" points="90,979 790,979 "/>
<text x="82" y="979" dy="0.5ex" text-anchor="end" font-family="sans-serif" font-size="8.064516129032258" opacity="1" fill="#7D8590">
10000
</text>
<polyline fill="none" opacity="1" stroke="#21262D" stroke-width="1" points="90,912 790,912 "/>
<text x="82" y="912" dy="0.5ex" text-anchor="end" font-family="sans-serif" font-size="8.064516129032258" opacity="1" fill="#7D8590">
20000
</text>
<polyline fill="none" opacity="1" stroke="#60A5FA" stroke-width="2" points="116,1040 197,985 278,925 359,911 440,924 521,955 602,999 683,1019 764,914 "/>
<circle cx="116" cy="1040" r="3" opacity="1" fill="#60A5FA" stroke="none" stroke-width="1"/>
<circle cx="197" cy="985" r="3" opacity="1" fill="#60A5FA" stroke="none" stroke-width="1"/>
<circle cx="278" cy="925" r="3" opacity="1" fill="#60A5FA" stroke="none" stroke-width="1"/>
<circle cx="359" cy="911" r="3" opacity="1" fill="#60A5FA" stroke="none" stroke-width="1"/>
<circle cx="440" cy="924" r="3" opacity="1" fill="#60A5FA" stroke="none" stroke-width="1"/>
<circle cx="521" cy="955" r="3" opacity="1" fill="#60A5FA" stroke="none" stroke-width="1"/>
<circle cx="602" cy="999" r="3" opacity="1" fill="#60A5FA" stroke="none" stroke-width="1"/>
<circle cx="683" cy="1019" r="3" opacity="1" fill="#60A5FA" stroke="none" stroke-width="1"/>
<circle cx="764" cy="914" r="3" opacity="1" fill="#60A5FA" stroke="none" stroke-width="1"/>
<polyline fill="none" opacity="1" stroke="#F87171" stroke-width="2" points="116,1071 197,1013 278,953 359,934 440,944 521,969 602,1014 683,1038 764,921 "/>
<circle cx="116" cy="1071" r="3" opacity="1" fill="#F87171" stroke="none" stroke-width="1"/>
<circle cx="197" cy="1013" r="3" opacity="1" fill="#F87171" stroke="none" stroke-width="1"/>
<circle cx="278" cy="953" r="3" opacity="1" fill="#F87171" stroke="none" stroke-width="1"/>
<circle cx="359" cy="934" r="3" opacity="1" fill="#F87171" stroke="none" stroke-width="1"/>
<circle cx="440" cy="944" r="3" opacity="1" fill="#F87171" stroke="none" stroke-width="1"/>
<circle cx="521" cy="969" r="3" opacity="1" fill="#F87171" stroke="none" stroke-width="1"/>
<circle cx="602" cy="1014" r="3" opacity="1" fill="#F87171" stroke="none" stroke-width="1"/>
<circle cx="683" cy="1038" r="3" opacity="1" fill="#F87171" stroke="none" stroke-width="1"/>
<circle cx="764" cy="921" r="3" opacity="1" fill="#F87171" stroke="none" stroke-width="1"/>
<polyline fill="none" opacity="1" stroke="#F472B6" stroke-width="2" points="116,1082 197,1027 278,967 359,930 440,949 521,983 602,1038 683,1082 764,896 "/>
<circle cx="116" cy="1082" r="3" opacity="1" fill="#F472B6" stroke="none" stroke-width="1"/>
<circle cx="197" cy="1027" r="3" opacity="1" fill="#F472B6" stroke="none" stroke-width="1"/>
<circle cx="278" cy="967" r="3" opacity="1" fill="#F472B6" stroke="none" stroke-width="1"/>
<circle cx="359" cy="930" r="3" opacity="1" fill="#F472B6" stroke="none" stroke-width="1"/>
<circle cx="440" cy="949" r="3" opacity="1" fill="#F472B6" stroke="none" stroke-width="1"/>
<circle cx="521" cy="983" r="3" opacity="1" fill="#F472B6" stroke="none" stroke-width="1"/>
<circle cx="602" cy="1038" r="3" opacity="1" fill="#F472B6" stroke="none" stroke-width="1"/>
<circle cx="683" cy="1082" r="3" opacity="1" fill="#F472B6" stroke="none" stroke-width="1"/>
<circle cx="764" cy="896" r="3" opacity="1" fill="#F472B6" stroke="none" stroke-width="1"/>
<polyline fill="none" opacity="1" stroke="#F59E0B" stroke-width="2" points="116,1074 197,1025 278,981 359,955 440,960 521,981 602,1015 683,1037 764,921 "/>
<circle cx="116" cy="1074" r="3" opacity="1" fill="#F59E0B" stroke="none" stroke-width="1"/>
<circle cx="197" cy="1025" r="3" opacity="1" fill="#F59E0B" stroke="none" stroke-width="1"/>
<circle cx="278" cy="981" r="3" opacity="1" fill="#F59E0B" stroke="none" stroke-width="1"/>
<circle cx="359" cy="955" r="3" opacity="1" fill="#F59E0B" stroke="none" stroke-width="1"/>
<circle cx="440" cy="960" r="3" opacity="1" fill="#F59E0B" stroke="none" stroke-width="1"/>
<circle cx="521" cy="981" r="3" opacity="1" fill="#F59E0B" stroke="none" stroke-width="1"/>
<circle cx="602" cy="1015" r="3" opacity="1" fill="#F59E0B" stroke="none" stroke-width="1"/>
<circle cx="683" cy="1037" r="3" opacity="1" fill="#F59E0B" stroke="none" stroke-width="1"/>
<circle cx="764" cy="921" r="3" opacity="1" fill="#F59E0B" stroke="none" stroke-width="1"/>
<polyline fill="none" opacity="1" stroke="#4ADE80" stroke-width="2" points="116,1073 197,1020 278,957 359,918 440,941 521,978 602,1027 683,1051 764,890 "/>
<circle cx="116" cy="1073" r="3" opacity="1" fill="#4ADE80" stroke="none" stroke-width="1"/>
<circle cx="197" cy="1020" r="3" opacity="1" fill="#4ADE80" stroke="none" stroke-width="1"/>
<circle cx="278" cy="957" r="3" opacity="1" fill="#4ADE80" stroke="none" stroke-width="1"/>
<circle cx="359" cy="918" r="3" opacity="1" fill="#4ADE80" stroke="none" stroke-width="1"/>
<circle cx="440" cy="941" r="3" opacity="1" fill="#4ADE80" stroke="none" stroke-width="1"/>
<circle cx="521" cy="978" r="3" opacity="1" fill="#4ADE80" stroke="none" stroke-width="1"/>
<circle cx="602" cy="1027" r="3" opacity="1" fill="#4ADE80" stroke="none" stroke-width="1"/>
<circle cx="683" cy="1051" r="3" opacity="1" fill="#4ADE80" stroke="none" stroke-width="1"/>
<circle cx="764" cy="890" r="3" opacity="1" fill="#4ADE80" stroke="none" stroke-width="1"/>
<text x="20" y="581" dy="0.5ex" text-anchor="middle" font-family="sans-serif" font-size="9.67741935483871" opacity="1" fill="#E6EDF3" font-weight="bold" transform="rotate(270, 20, 581)">
decode MB/s (log scale)
</text>
<rect x="130" y="1140" width="12" height="12" opacity="1" fill="#60A5FA" stroke="none"/>
<text x="148" y="1146" dy="0.5ex" text-anchor="start" font-family="sans-serif" font-size="8.870967741935484" opacity="1" fill="#E6EDF3">
lz4 (C)
</text>
<rect x="130" y="1160" width="12" height="12" opacity="1" fill="#F87171" stroke="none"/>
<text x="148" y="1166" dy="0.5ex" text-anchor="start" font-family="sans-serif" font-size="8.870967741935484" opacity="1" fill="#E6EDF3">
lz4rip (encapsulated unsafe)
</text>
<rect x="130" y="1180" width="12" height="12" opacity="1" fill="#F472B6" stroke="none"/>
<text x="148" y="1186" dy="0.5ex" text-anchor="start" font-family="sans-serif" font-size="8.870967741935484" opacity="1" fill="#E6EDF3">
lz4rip paranoid (safe)
</text>
<rect x="360" y="1140" width="12" height="12" opacity="1" fill="#F59E0B" stroke="none"/>
<text x="378" y="1146" dy="0.5ex" text-anchor="start" font-family="sans-serif" font-size="8.870967741935484" opacity="1" fill="#E6EDF3">
lz4_flex (unsafe)
</text>
<rect x="360" y="1160" width="12" height="12" opacity="1" fill="#4ADE80" stroke="none"/>
<text x="378" y="1166" dy="0.5ex" text-anchor="start" font-family="sans-serif" font-size="8.870967741935484" opacity="1" fill="#E6EDF3">
lz4_flex (safe)
</text>
</svg>
