<svg viewBox="0 0 850 510" xmlns="http://www.w3.org/2000/svg" font-family="system-ui, -apple-system, sans-serif">
<rect x="0" y="0" width="850" height="510" opacity="1" fill="#0D1117" stroke="none"/>
<text x="425" y="22" dy="0.5ex" text-anchor="middle" font-family="sans-serif" font-size="12.096774193548388" opacity="1" fill="#E6EDF3" font-weight="bold">
12-file Silesia Prefixes + Dict 2K: Pipeline @1 GB/s (lower is better)
</text>
<text x="425" y="40" dy="0.5ex" text-anchor="middle" font-family="sans-serif" font-size="8.870967741935484" opacity="1" fill="#7D8590">
Intel Core i7-8700B @ 3.20GHz, 12 cores, performance governor, turbo off
</text>
<text x="22" y="232" dy="0.5ex" text-anchor="middle" font-family="sans-serif" font-size="9.67741935483871" opacity="1" fill="#E6EDF3" font-weight="bold" transform="rotate(270, 22, 232)">
seconds / GB
</text>
<polyline fill="none" opacity="1" stroke="#21262D" stroke-width="1" points="55,277 830,277 "/>
<text x="47" y="277" dy="0.5ex" text-anchor="end" font-family="sans-serif" font-size="8.870967741935484" opacity="1" fill="#7D8590">
5
</text>
<polyline fill="none" opacity="1" stroke="#21262D" stroke-width="1" points="55,151 830,151 "/>
<text x="47" y="151" dy="0.5ex" text-anchor="end" font-family="sans-serif" font-size="8.870967741935484" opacity="1" fill="#7D8590">
10
</text>
<polyline fill="none" opacity="1" stroke="#30363D" stroke-width="2" points="55,402 830,402 "/>
<rect x="71" y="205" width="24" height="197" opacity="1" fill="#60A5FA" stroke="none"/>
<rect x="71" y="187" width="24" height="18" opacity="1" fill="#4680C4" stroke="none"/>
<rect x="71" y="93" width="24" height="94" opacity="1" fill="#60A5FA" stroke="none"/>
<rect x="95" y="370" width="25" height="32" opacity="1" fill="#F87171" stroke="none"/>
<rect x="95" y="349" width="25" height="21" opacity="1" fill="#C45050" stroke="none"/>
<rect x="95" y="339" width="25" height="10" opacity="1" fill="#F87171" stroke="none"/>
<text x="120" y="420" dy="0.5ex" text-anchor="middle" font-family="sans-serif" font-size="8.870967741935484" opacity="1" fill="#E6EDF3" font-weight="bold">
256
</text>
<rect x="200" y="286" width="25" height="116" opacity="1" fill="#60A5FA" stroke="none"/>
<rect x="200" y="270" width="25" height="16" opacity="1" fill="#4680C4" stroke="none"/>
<rect x="200" y="220" width="25" height="50" opacity="1" fill="#60A5FA" stroke="none"/>
<rect x="225" y="364" width="24" height="38" opacity="1" fill="#F87171" stroke="none"/>
<rect x="225" y="345" width="24" height="19" opacity="1" fill="#C45050" stroke="none"/>
<rect x="225" y="334" width="24" height="11" opacity="1" fill="#F87171" stroke="none"/>
<text x="249" y="420" dy="0.5ex" text-anchor="middle" font-family="sans-serif" font-size="8.870967741935484" opacity="1" fill="#E6EDF3" font-weight="bold">
512
</text>
<rect x="329" y="328" width="25" height="74" opacity="1" fill="#60A5FA" stroke="none"/>
<rect x="329" y="313" width="25" height="15" opacity="1" fill="#4680C4" stroke="none"/>
<rect x="329" y="286" width="25" height="27" opacity="1" fill="#60A5FA" stroke="none"/>
<rect x="354" y="370" width="24" height="32" opacity="1" fill="#F87171" stroke="none"/>
<rect x="354" y="352" width="24" height="18" opacity="1" fill="#C45050" stroke="none"/>
<rect x="354" y="343" width="24" height="9" opacity="1" fill="#F87171" stroke="none"/>
<text x="378" y="420" dy="0.5ex" text-anchor="middle" font-family="sans-serif" font-size="8.870967741935484" opacity="1" fill="#E6EDF3" font-weight="bold">
1K
</text>
<rect x="459" y="349" width="24" height="53" opacity="1" fill="#60A5FA" stroke="none"/>
<rect x="459" y="334" width="24" height="15" opacity="1" fill="#4680C4" stroke="none"/>
<rect x="459" y="317" width="24" height="17" opacity="1" fill="#60A5FA" stroke="none"/>
<rect x="483" y="370" width="24" height="32" opacity="1" fill="#F87171" stroke="none"/>
<rect x="483" y="353" width="24" height="17" opacity="1" fill="#C45050" stroke="none"/>
<rect x="483" y="344" width="24" height="9" opacity="1" fill="#F87171" stroke="none"/>
<text x="507" y="420" dy="0.5ex" text-anchor="middle" font-family="sans-serif" font-size="8.870967741935484" opacity="1" fill="#E6EDF3" font-weight="bold">
2K
</text>
<rect x="588" y="356" width="24" height="46" opacity="1" fill="#60A5FA" stroke="none"/>
<rect x="588" y="342" width="24" height="14" opacity="1" fill="#4680C4" stroke="none"/>
<rect x="588" y="330" width="24" height="12" opacity="1" fill="#60A5FA" stroke="none"/>
<rect x="612" y="369" width="24" height="33" opacity="1" fill="#F87171" stroke="none"/>
<rect x="612" y="352" width="24" height="17" opacity="1" fill="#C45050" stroke="none"/>
<rect x="612" y="343" width="24" height="9" opacity="1" fill="#F87171" stroke="none"/>
<text x="636" y="420" dy="0.5ex" text-anchor="middle" font-family="sans-serif" font-size="8.870967741935484" opacity="1" fill="#E6EDF3" font-weight="bold">
4K
</text>
<rect x="717" y="340" width="24" height="62" opacity="1" fill="#60A5FA" stroke="none"/>
<rect x="717" y="325" width="24" height="15" opacity="1" fill="#4680C4" stroke="none"/>
<rect x="717" y="316" width="24" height="9" opacity="1" fill="#60A5FA" stroke="none"/>
<rect x="741" y="367" width="24" height="35" opacity="1" fill="#F87171" stroke="none"/>
<rect x="741" y="351" width="24" height="16" opacity="1" fill="#C45050" stroke="none"/>
<rect x="741" y="342" width="24" height="9" opacity="1" fill="#F87171" stroke="none"/>
<text x="765" y="420" dy="0.5ex" text-anchor="middle" font-family="sans-serif" font-size="8.870967741935484" opacity="1" fill="#E6EDF3" font-weight="bold">
8K
</text>
<rect x="225" y="438" width="12" height="12" opacity="1" fill="#60A5FA" stroke="none"/>
<text x="243" y="444" dy="0.5ex" text-anchor="start" font-family="sans-serif" font-size="8.870967741935484" opacity="1" fill="#E6EDF3">
lz4 (C, dict)
</text>
<rect x="455" y="438" width="12" height="12" opacity="1" fill="#F87171" stroke="none"/>
<text x="473" y="444" dy="0.5ex" text-anchor="start" font-family="sans-serif" font-size="8.870967741935484" opacity="1" fill="#E6EDF3">
lz4rip (dict)
</text>
<text x="215" y="482" dy="0.5ex" text-anchor="start" font-family="sans-serif" font-size="8.064516129032258" opacity="1" fill="#E6EDF3">
bright = compress + decompress
</text>
<text x="455" y="482" dy="0.5ex" text-anchor="start" font-family="sans-serif" font-size="8.064516129032258" opacity="1" fill="#7D8590">
dim = transfer @1 GB/s
</text>
</svg>
