<svg viewBox="0 0 850 510" xmlns="http://www.w3.org/2000/svg" font-family="system-ui, -apple-system, sans-serif">
<rect x="0" y="0" width="850" height="510" opacity="1" fill="#0D1117" stroke="none"/>
<text x="425" y="22" dy="0.5ex" text-anchor="middle" font-family="sans-serif" font-size="12.096774193548388" opacity="1" fill="#E6EDF3" font-weight="bold">
12-file Silesia Prefixes + Dict 2K: Pipeline @1 GB/s (lower is better)
</text>
<text x="425" y="40" dy="0.5ex" text-anchor="middle" font-family="sans-serif" font-size="8.870967741935484" opacity="1" fill="#7D8590">
Intel Core i7-8700B @ 3.20GHz, 6 cores, performance governor, turbo off
</text>
<text x="22" y="232" dy="0.5ex" text-anchor="middle" font-family="sans-serif" font-size="9.67741935483871" opacity="1" fill="#E6EDF3" font-weight="bold" transform="rotate(270, 22, 232)">
seconds / GB
</text>
<polyline fill="none" opacity="1" stroke="#21262D" stroke-width="1" points="55,273 830,273 "/>
<text x="47" y="273" dy="0.5ex" text-anchor="end" font-family="sans-serif" font-size="8.870967741935484" opacity="1" fill="#7D8590">
5
</text>
<polyline fill="none" opacity="1" stroke="#21262D" stroke-width="1" points="55,144 830,144 "/>
<text x="47" y="144" dy="0.5ex" text-anchor="end" font-family="sans-serif" font-size="8.870967741935484" opacity="1" fill="#7D8590">
10
</text>
<polyline fill="none" opacity="1" stroke="#30363D" stroke-width="2" points="55,402 830,402 "/>
<rect x="71" y="208" width="24" height="194" opacity="1" fill="#60A5FA" stroke="none"/>
<rect x="71" y="190" width="24" height="18" opacity="1" fill="#4680C4" stroke="none"/>
<rect x="71" y="93" width="24" height="97" opacity="1" fill="#60A5FA" stroke="none"/>
<rect x="95" y="281" width="25" height="121" opacity="1" fill="#F87171" stroke="none"/>
<rect x="95" y="259" width="25" height="22" opacity="1" fill="#C45050" stroke="none"/>
<rect x="95" y="158" width="25" height="101" opacity="1" fill="#F87171" stroke="none"/>
<text x="120" y="420" dy="0.5ex" text-anchor="middle" font-family="sans-serif" font-size="8.870967741935484" opacity="1" fill="#E6EDF3" font-weight="bold">
256
</text>
<rect x="200" y="287" width="25" height="115" opacity="1" fill="#60A5FA" stroke="none"/>
<rect x="200" y="270" width="25" height="17" opacity="1" fill="#4680C4" stroke="none"/>
<rect x="200" y="219" width="25" height="51" opacity="1" fill="#60A5FA" stroke="none"/>
<rect x="225" y="319" width="24" height="83" opacity="1" fill="#F87171" stroke="none"/>
<rect x="225" y="299" width="24" height="20" opacity="1" fill="#C45050" stroke="none"/>
<rect x="225" y="243" width="24" height="56" opacity="1" fill="#F87171" stroke="none"/>
<text x="249" y="420" dy="0.5ex" text-anchor="middle" font-family="sans-serif" font-size="8.870967741935484" opacity="1" fill="#E6EDF3" font-weight="bold">
512
</text>
<rect x="329" y="328" width="25" height="74" opacity="1" fill="#60A5FA" stroke="none"/>
<rect x="329" y="313" width="25" height="15" opacity="1" fill="#4680C4" stroke="none"/>
<rect x="329" y="285" width="25" height="28" opacity="1" fill="#60A5FA" stroke="none"/>
<rect x="354" y="348" width="24" height="54" opacity="1" fill="#F87171" stroke="none"/>
<rect x="354" y="330" width="24" height="18" opacity="1" fill="#C45050" stroke="none"/>
<rect x="354" y="298" width="24" height="32" opacity="1" fill="#F87171" stroke="none"/>
<text x="378" y="420" dy="0.5ex" text-anchor="middle" font-family="sans-serif" font-size="8.870967741935484" opacity="1" fill="#E6EDF3" font-weight="bold">
1K
</text>
<rect x="459" y="348" width="24" height="54" opacity="1" fill="#60A5FA" stroke="none"/>
<rect x="459" y="333" width="24" height="15" opacity="1" fill="#4680C4" stroke="none"/>
<rect x="459" y="316" width="24" height="17" opacity="1" fill="#60A5FA" stroke="none"/>
<rect x="483" y="360" width="24" height="42" opacity="1" fill="#F87171" stroke="none"/>
<rect x="483" y="342" width="24" height="18" opacity="1" fill="#C45050" stroke="none"/>
<rect x="483" y="322" width="24" height="20" opacity="1" fill="#F87171" stroke="none"/>
<text x="507" y="420" dy="0.5ex" text-anchor="middle" font-family="sans-serif" font-size="8.870967741935484" opacity="1" fill="#E6EDF3" font-weight="bold">
2K
</text>
<rect x="588" y="356" width="24" height="46" opacity="1" fill="#60A5FA" stroke="none"/>
<rect x="588" y="341" width="24" height="15" opacity="1" fill="#4680C4" stroke="none"/>
<rect x="588" y="328" width="24" height="13" opacity="1" fill="#60A5FA" stroke="none"/>
<rect x="612" y="364" width="24" height="38" opacity="1" fill="#F87171" stroke="none"/>
<rect x="612" y="347" width="24" height="17" opacity="1" fill="#C45050" stroke="none"/>
<rect x="612" y="333" width="24" height="14" opacity="1" fill="#F87171" stroke="none"/>
<text x="636" y="420" dy="0.5ex" text-anchor="middle" font-family="sans-serif" font-size="8.870967741935484" opacity="1" fill="#E6EDF3" font-weight="bold">
4K
</text>
<rect x="717" y="340" width="24" height="62" opacity="1" fill="#60A5FA" stroke="none"/>
<rect x="717" y="324" width="24" height="16" opacity="1" fill="#4680C4" stroke="none"/>
<rect x="717" y="315" width="24" height="9" opacity="1" fill="#60A5FA" stroke="none"/>
<rect x="741" y="365" width="24" height="37" opacity="1" fill="#F87171" stroke="none"/>
<rect x="741" y="348" width="24" height="17" opacity="1" fill="#C45050" stroke="none"/>
<rect x="741" y="337" width="24" height="11" opacity="1" fill="#F87171" stroke="none"/>
<text x="765" y="420" dy="0.5ex" text-anchor="middle" font-family="sans-serif" font-size="8.870967741935484" opacity="1" fill="#E6EDF3" font-weight="bold">
8K
</text>
<rect x="225" y="438" width="12" height="12" opacity="1" fill="#60A5FA" stroke="none"/>
<text x="243" y="444" dy="0.5ex" text-anchor="start" font-family="sans-serif" font-size="8.870967741935484" opacity="1" fill="#E6EDF3">
lz4 (C, dict)
</text>
<rect x="455" y="438" width="12" height="12" opacity="1" fill="#F87171" stroke="none"/>
<text x="473" y="444" dy="0.5ex" text-anchor="start" font-family="sans-serif" font-size="8.870967741935484" opacity="1" fill="#E6EDF3">
lz4rip (dict)
</text>
<text x="215" y="482" dy="0.5ex" text-anchor="start" font-family="sans-serif" font-size="8.064516129032258" opacity="1" fill="#E6EDF3">
bright = compress + decompress
</text>
<text x="455" y="482" dy="0.5ex" text-anchor="start" font-family="sans-serif" font-size="8.064516129032258" opacity="1" fill="#7D8590">
dim = transfer @1 GB/s
</text>
</svg>
